<svg xmlns="http://www.w3.org/2000/svg" xmlns:svg="http://www.w3.org/2000/svg" id="svg11300" width="128" height="128" version="1.1" viewBox="0 0 128 128" style="display:inline;enable-background:new"><title id="title4162">Adwaita Icon Template</title><defs id="defs3"><marker style="overflow:visible" id="marker6442" orient="auto" refX="0" refY="0"><path style="fill-rule:evenodd;stroke:#000;stroke-width:1pt;stroke-opacity:1;fill:#000;fill-opacity:1" id="path6440" d="M -2.5,-1.0 C -2.5,1.7600000 -4.7400000,4.0 -7.5,4.0 C -10.260000,4.0 -12.5,1.7600000 -12.5,-1.0 C -12.5,-3.7600000 -10.260000,-6.0 -7.5,-6.0 C -4.7400000,-6.0 -2.5,-3.7600000 -2.5,-1.0 z" transform="scale(0.2) translate(7.4, 1)"/></marker><marker style="overflow:visible" id="marker6384" orient="auto" refX="0" refY="0"><path style="fill-rule:evenodd;stroke:#000;stroke-width:1pt;stroke-opacity:1;fill:#000;fill-opacity:1" id="path6382" d="M -2.5,-1.0 C -2.5,1.7600000 -4.7400000,4.0 -7.5,4.0 C -10.260000,4.0 -12.5,1.7600000 -12.5,-1.0 C -12.5,-3.7600000 -10.260000,-6.0 -7.5,-6.0 C -4.7400000,-6.0 -2.5,-3.7600000 -2.5,-1.0 z" transform="scale(0.2) translate(7.4, 1)"/></marker><marker id="marker5416" orient="auto" refX="0" refY="0" style="overflow:visible"><path id="path5414" d="M -2.5,-1.0 C -2.5,1.7600000 -4.7400000,4.0 -7.5,4.0 C -10.260000,4.0 -12.5,1.7600000 -12.5,-1.0 C -12.5,-3.7600000 -10.260000,-6.0 -7.5,-6.0 C -4.7400000,-6.0 -2.5,-3.7600000 -2.5,-1.0 z" transform="scale(0.2) translate(7.4, 1)" style="fill-rule:evenodd;stroke:#000;stroke-width:1pt;stroke-opacity:1;fill:#000;fill-opacity:1"/></marker><marker id="marker5370" orient="auto" refX="0" refY="0" style="overflow:visible"><path id="path5368" d="M -2.5,-1.0 C -2.5,1.7600000 -4.7400000,4.0 -7.5,4.0 C -10.260000,4.0 -12.5,1.7600000 -12.5,-1.0 C -12.5,-3.7600000 -10.260000,-6.0 -7.5,-6.0 C -4.7400000,-6.0 -2.5,-3.7600000 -2.5,-1.0 z" transform="scale(0.2) translate(7.4, 1)" style="fill-rule:evenodd;stroke:#000;stroke-width:1pt;stroke-opacity:1;fill:#000;fill-opacity:1"/></marker><marker id="DotL" orient="auto" refX="0" refY="0" style="overflow:visible"><path id="path4643" d="M -2.5,-1.0 C -2.5,1.7600000 -4.7400000,4.0 -7.5,4.0 C -10.260000,4.0 -12.5,1.7600000 -12.5,-1.0 C -12.5,-3.7600000 -10.260000,-6.0 -7.5,-6.0 C -4.7400000,-6.0 -2.5,-3.7600000 -2.5,-1.0 z" transform="scale(0.8) translate(7.4, 1)" style="fill-rule:evenodd;stroke:#000;stroke-width:1pt;stroke-opacity:1;fill:#000;fill-opacity:1"/></marker><linearGradient id="linearGradient1099" x1="32" x2="96" y1="236" y2="236" gradientTransform="translate(604.81684,170.58641)" gradientUnits="userSpaceOnUse"/><linearGradient id="linearGradient1036"><stop id="stop1032" offset="0" style="stop-color:#d5d3cf;stop-opacity:1"/><stop id="stop1034" offset="1" style="stop-color:#f6f5f4;stop-opacity:1"/></linearGradient><radialGradient id="radialGradient1103" cx="-244" cy="-76" r="32" fx="-244" fy="-76" gradientTransform="matrix(0.88333331,0,0,0.88333331,-460.35018,463.11973)" gradientUnits="userSpaceOnUse"/><linearGradient id="linearGradient1069"><stop id="stop1065" offset="0" style="stop-color:#d5d3cf;stop-opacity:1"/><stop id="stop1067-1" offset="1" style="stop-color:#949390;stop-opacity:1"/></linearGradient><linearGradient id="linearGradient1027" x1="64" x2="64" y1="262.5" y2="232" gradientTransform="translate(-470.5864,432.81685)" gradientUnits="userSpaceOnUse"/><linearGradient id="linearGradient1025"><stop id="stop1021" offset="0" style="stop-color:#9a9996;stop-opacity:1"/><stop id="stop1023" offset="1" style="stop-color:#77767b;stop-opacity:1"/></linearGradient><clipPath id="clipPath1609-7" clipPathUnits="userSpaceOnUse"><path id="path1611-5" d="m 252,116 28,-28 v -8 h -36 v 36 z" style="fill:#e74747;stroke:none;stroke-width:.25px;stroke-linecap:butt;stroke-linejoin:miter;stroke-opacity:1"/></clipPath></defs><metadata id="metadata4"/><g id="layer4" style="display:inline"><path id="path5291" d="M 115.50479,14.962753 H 12.495266 V 115.71707 h 91.936864 l 11.07266,-11.43402 z" style="display:inline;fill:#133f78;fill-opacity:1;stroke:none;stroke-width:1.97798562;stroke-miterlimit:4;stroke-dasharray:none;stroke-opacity:1;enable-background:new"/><path style="display:inline;fill:#1c71d8;fill-opacity:1;stroke:none;stroke-width:1.9677422;stroke-miterlimit:4;stroke-dasharray:none;stroke-opacity:1;enable-background:new" id="rect61" d="m 114.93228,13.111581 c -0.65679,-0.656823 -1.87349,-0.616339 -1.87349,-0.616339 H 14.949078 c 0,0 -0.797413,-0.130975 -1.674151,0.745763 -0.876738,0.876737 -0.779661,1.721748 -0.779661,1.721748 v 97.245937 h 91.936864 l 11.07266,-11.3159 V 14.962753 c 0,0 0.0843,-1.194349 -0.57251,-1.851172 z"/><rect style="display:inline;opacity:1;fill:#3584e4;fill-opacity:1;stroke:none;stroke-width:1.43385339;stroke-miterlimit:4;stroke-dasharray:none;stroke-opacity:1;enable-background:new" id="rect954" width="60.494" height="37.139" x="40.276" y="74.897" ry="7.425"/><rect id="rect4659" width="60.494" height="21.229" x="40.276" y="90.98" ry="0" style="display:inline;opacity:1;fill:#3483e4;fill-opacity:1;stroke:none;stroke-width:1.43385339;stroke-miterlimit:4;stroke-dasharray:none;stroke-opacity:1;enable-background:new"/><rect style="display:inline;opacity:1;fill:#f6f5f4;fill-opacity:1;stroke:none;stroke-width:1.96892774;stroke-miterlimit:4;stroke-dasharray:none;stroke-opacity:1;enable-background:new" id="rect4575" width="79.813" height="53.078" x="24.076" y="16.636" ry="5.318"/><rect id="rect7546" width="55.911" height="37.139" x="28.026" y="74.897" ry="7.407" style="display:inline;opacity:1;fill:#98c1f1;fill-opacity:1;stroke:none;stroke-width:1.37847495;stroke-miterlimit:4;stroke-dasharray:none;stroke-opacity:1;enable-background:new"/><rect style="display:inline;opacity:1;fill:#98c1f1;fill-opacity:1;stroke:none;stroke-width:.97927105;stroke-miterlimit:4;stroke-dasharray:none;stroke-opacity:1;enable-background:new" id="rect919" width="55.911" height="18.743" x="28.026" y="93.466" ry="0"/><rect style="display:inline;opacity:1;fill:#1a5fb4;fill-opacity:1;stroke:none;stroke-width:.69969916;stroke-miterlimit:4;stroke-dasharray:none;stroke-opacity:1;enable-background:new" id="rect7578" width="16.78" height="31.882" x="39.201" y="80.326" ry="0"/><g id="g1365" transform="matrix(0.44882356,0,0,0.44882356,42.391668,16.635705)" style="display:inline;fill:#3d3846;fill-opacity:1;fill-rule:nonzero;stroke:none;stroke-width:4.6164093;stroke-miterlimit:4;stroke-dasharray:none;stroke-opacity:1;enable-background:new"><g id="g1367" style="fill:#3d3846;fill-opacity:1;stroke:none;stroke-width:4.6164093;stroke-miterlimit:4;stroke-dasharray:none;stroke-opacity:1"><path id="path1369" d="M 86.068,0 C 61.466,0 56.851,35.041 70.691,35.041 84.529,35.041 110.671,0 86.068,0 Z" style="fill:#3d3846;fill-opacity:1;stroke:none;stroke-width:4.6164093;stroke-miterlimit:4;stroke-dasharray:none;stroke-opacity:1"/><path id="path1371" d="M 45.217,30.699 C 52.586,31.149 60.671,2.577 46.821,4.374 32.976,6.171 37.845,30.249 45.217,30.699 Z" style="fill:#3d3846;fill-opacity:1;stroke:none;stroke-width:4.6164093;stroke-miterlimit:4;stroke-dasharray:none;stroke-opacity:1"/><path id="path1373" d="M 11.445,48.453 C 16.686,46.146 12.12,23.581 3.208,29.735 -5.7,35.89 6.204,50.759 11.445,48.453 Z" style="fill:#3d3846;fill-opacity:1;stroke:none;stroke-width:4.6164093;stroke-miterlimit:4;stroke-dasharray:none;stroke-opacity:1"/><path id="path1375" d="M 26.212,36.642 C 32.451,35.37 32.793,9.778 21.667,14.369 10.539,18.961 19.978,37.916 26.212,36.642 Z" style="fill:#3d3846;fill-opacity:1;stroke:none;stroke-width:4.6164093;stroke-miterlimit:4;stroke-dasharray:none;stroke-opacity:1"/><path id="newshape" d="m 58.791,93.913 c 1.107,8.454 -6.202,12.629 -13.36,7.179 C 22.644,83.743 83.16,75.088 79.171,51.386 75.86,31.712 15.495,37.769 8.621,68.553 3.968,89.374 27.774,118.26 52.614,118.26 c 12.22,0 26.315,-11.034 28.952,-25.012 C 83.58,82.589 57.867,86.86 58.791,93.913 Z" style="fill:#3d3846;fill-opacity:1;stroke:none;stroke-width:4.6164093;stroke-miterlimit:4;stroke-dasharray:none;stroke-opacity:1"/></g></g><rect id="rect5330" width="55.911" height="3.508" x="28.026" y="112.209" ry="0" style="display:inline;opacity:1;fill:#297fe5;fill-opacity:1;stroke:none;stroke-width:.42368105;stroke-miterlimit:4;stroke-dasharray:none;stroke-opacity:1;enable-background:new"/><rect id="rect5332" width="16.78" height="3.508" x="39.201" y="112.209" ry="0" style="display:inline;opacity:1;fill:#133f78;fill-opacity:1;stroke:none;stroke-width:.23210785;stroke-miterlimit:4;stroke-dasharray:none;stroke-opacity:1;enable-background:new"/><rect style="display:inline;opacity:1;fill:#1359ab;fill-opacity:1;stroke:none;stroke-width:.30747864;stroke-miterlimit:4;stroke-dasharray:none;stroke-opacity:1;enable-background:new" id="rect5334" width="16.833" height="3.508" x="83.937" y="112.209" ry="0"/><path style="fill:#132c51;fill-opacity:1;stroke:none;stroke-width:1px;stroke-linecap:butt;stroke-linejoin:miter;stroke-opacity:1" id="path5336" d="m 104.43213,112.20869 v 3.50838 l 11.07266,-11.07266 v -3.75162 z"/></g></svg>