<svg xmlns="http://www.w3.org/2000/svg" xmlns:svg="http://www.w3.org/2000/svg" id="svg11300" width="128" height="128" version="1.1" viewBox="0 0 128 128" style="display:inline;enable-background:new"><title id="title4162">Adwaita Icon Template</title><defs id="defs3"><marker id="SemiCircleOut" orient="auto" refX="0" refY="0" style="overflow:visible"><path id="path4831" d="M -2.5,-0.80913858 C -2.5,1.9508614 -4.7400000,4.1908614 -7.5,4.1908614 L -7.5,-5.8091386 C -4.7400000,-5.8091386 -2.5,-3.5691386 -2.5,-0.80913858 z" transform="scale(0.6) translate(7.125493,0.763446)" style="fill-rule:evenodd;stroke:#000;stroke-width:1pt"/></marker><marker style="overflow:visible" id="marker6442" orient="auto" refX="0" refY="0"><path style="fill-rule:evenodd;stroke:#000;stroke-width:1pt;stroke-opacity:1;fill:#000;fill-opacity:1" id="path6440" d="M -2.5,-1.0 C -2.5,1.7600000 -4.7400000,4.0 -7.5,4.0 C -10.260000,4.0 -12.5,1.7600000 -12.5,-1.0 C -12.5,-3.7600000 -10.260000,-6.0 -7.5,-6.0 C -4.7400000,-6.0 -2.5,-3.7600000 -2.5,-1.0 z" transform="scale(0.2) translate(7.4, 1)"/></marker><marker style="overflow:visible" id="marker6384" orient="auto" refX="0" refY="0"><path style="fill-rule:evenodd;stroke:#000;stroke-width:1pt;stroke-opacity:1;fill:#000;fill-opacity:1" id="path6382" d="M -2.5,-1.0 C -2.5,1.7600000 -4.7400000,4.0 -7.5,4.0 C -10.260000,4.0 -12.5,1.7600000 -12.5,-1.0 C -12.5,-3.7600000 -10.260000,-6.0 -7.5,-6.0 C -4.7400000,-6.0 -2.5,-3.7600000 -2.5,-1.0 z" transform="scale(0.2) translate(7.4, 1)"/></marker><marker id="marker5416" orient="auto" refX="0" refY="0" style="overflow:visible"><path id="path5414" d="M -2.5,-1.0 C -2.5,1.7600000 -4.7400000,4.0 -7.5,4.0 C -10.260000,4.0 -12.5,1.7600000 -12.5,-1.0 C -12.5,-3.7600000 -10.260000,-6.0 -7.5,-6.0 C -4.7400000,-6.0 -2.5,-3.7600000 -2.5,-1.0 z" transform="scale(0.2) translate(7.4, 1)" style="fill-rule:evenodd;stroke:#000;stroke-width:1pt;stroke-opacity:1;fill:#000;fill-opacity:1"/></marker><marker id="marker5370" orient="auto" refX="0" refY="0" style="overflow:visible"><path id="path5368" d="M -2.5,-1.0 C -2.5,1.7600000 -4.7400000,4.0 -7.5,4.0 C -10.260000,4.0 -12.5,1.7600000 -12.5,-1.0 C -12.5,-3.7600000 -10.260000,-6.0 -7.5,-6.0 C -4.7400000,-6.0 -2.5,-3.7600000 -2.5,-1.0 z" transform="scale(0.2) translate(7.4, 1)" style="fill-rule:evenodd;stroke:#000;stroke-width:1pt;stroke-opacity:1;fill:#000;fill-opacity:1"/></marker><marker id="DotL" orient="auto" refX="0" refY="0" style="overflow:visible"><path id="path4643" d="M -2.5,-1.0 C -2.5,1.7600000 -4.7400000,4.0 -7.5,4.0 C -10.260000,4.0 -12.5,1.7600000 -12.5,-1.0 C -12.5,-3.7600000 -10.260000,-6.0 -7.5,-6.0 C -4.7400000,-6.0 -2.5,-3.7600000 -2.5,-1.0 z" transform="scale(0.8) translate(7.4, 1)" style="fill-rule:evenodd;stroke:#000;stroke-width:1pt;stroke-opacity:1;fill:#000;fill-opacity:1"/></marker><linearGradient id="linearGradient1099" x1="32" x2="96" y1="236" y2="236" gradientTransform="translate(604.81684,170.58641)" gradientUnits="userSpaceOnUse"/><linearGradient id="linearGradient1036"><stop id="stop1032" offset="0" style="stop-color:#d5d3cf;stop-opacity:1"/><stop id="stop1034" offset="1" style="stop-color:#f6f5f4;stop-opacity:1"/></linearGradient><radialGradient id="radialGradient1103" cx="-244" cy="-76" r="32" fx="-244" fy="-76" gradientTransform="matrix(0.88333331,0,0,0.88333331,-460.35018,463.11973)" gradientUnits="userSpaceOnUse"/><linearGradient id="linearGradient1069"><stop id="stop1065" offset="0" style="stop-color:#d5d3cf;stop-opacity:1"/><stop id="stop1067-1" offset="1" style="stop-color:#949390;stop-opacity:1"/></linearGradient><linearGradient id="linearGradient1027" x1="64" x2="64" y1="262.5" y2="232" gradientTransform="translate(-470.5864,432.81685)" gradientUnits="userSpaceOnUse"/><linearGradient id="linearGradient1025"><stop id="stop1021" offset="0" style="stop-color:#9a9996;stop-opacity:1"/><stop id="stop1023" offset="1" style="stop-color:#77767b;stop-opacity:1"/></linearGradient><clipPath id="clipPath1609-7" clipPathUnits="userSpaceOnUse"><path id="path1611-5" d="m 252,116 28,-28 v -8 h -36 v 36 z" style="fill:#e74747;stroke:none;stroke-width:.25px;stroke-linecap:butt;stroke-linejoin:miter;stroke-opacity:1"/></clipPath></defs><metadata id="metadata4"/><path style="display:inline;fill:#133f78;fill-opacity:1;stroke:none;stroke-width:1.97798562;stroke-miterlimit:4;stroke-dasharray:none;stroke-opacity:1;enable-background:new" id="path5291" d="M 115.50479,14.962753 H 12.495266 V 115.71707 h 91.936864 l 11.07266,-11.43402 z"/><path id="rect61" d="m 114.93228,13.111581 c -0.65679,-0.656823 -1.87349,-0.616339 -1.87349,-0.616339 H 14.949078 c 0,0 -0.797413,-0.130975 -1.674151,0.745763 -0.876738,0.876737 -0.779661,1.721748 -0.779661,1.721748 v 97.245937 h 91.936864 l 11.07266,-11.3159 V 14.962753 c 0,0 0.0843,-1.194349 -0.57251,-1.851172 z" style="display:inline;fill:#1c71d8;fill-opacity:1;stroke:none;stroke-width:1.9677422;stroke-miterlimit:4;stroke-dasharray:none;stroke-opacity:1;enable-background:new"/><rect id="rect954" width="60.494" height="37.139" x="40.276" y="74.897" ry="7.425" style="display:inline;opacity:1;fill:#3584e4;fill-opacity:1;stroke:none;stroke-width:1.43385339;stroke-miterlimit:4;stroke-dasharray:none;stroke-opacity:1;enable-background:new"/><rect style="display:inline;opacity:1;fill:#3483e4;fill-opacity:1;stroke:none;stroke-width:1.43385339;stroke-miterlimit:4;stroke-dasharray:none;stroke-opacity:1;enable-background:new" id="rect4659" width="60.494" height="21.229" x="40.276" y="90.98" ry="0"/><rect id="rect4575" width="79.813" height="53.078" x="24.076" y="16.636" ry="5.318" style="display:inline;opacity:1;fill:#f6f5f4;fill-opacity:1;stroke:none;stroke-width:1.96892774;stroke-miterlimit:4;stroke-dasharray:none;stroke-opacity:1;enable-background:new"/><rect style="display:inline;opacity:1;fill:#98c1f1;fill-opacity:1;stroke:none;stroke-width:1.37847495;stroke-miterlimit:4;stroke-dasharray:none;stroke-opacity:1;enable-background:new" id="rect7546" width="55.911" height="37.139" x="28.026" y="74.897" ry="7.407"/><rect id="rect919" width="55.911" height="18.743" x="28.026" y="93.466" ry="0" style="display:inline;opacity:1;fill:#98c1f1;fill-opacity:1;stroke:none;stroke-width:.97927105;stroke-miterlimit:4;stroke-dasharray:none;stroke-opacity:1;enable-background:new"/><rect id="rect7578" width="16.78" height="31.882" x="39.201" y="80.326" ry="0" style="display:inline;opacity:1;fill:#1a5fb4;fill-opacity:1;stroke:none;stroke-width:.69969916;stroke-miterlimit:4;stroke-dasharray:none;stroke-opacity:1;enable-background:new"/><rect style="display:inline;opacity:1;fill:#297fe5;fill-opacity:1;stroke:none;stroke-width:.42368105;stroke-miterlimit:4;stroke-dasharray:none;stroke-opacity:1;enable-background:new" id="rect5330" width="55.911" height="3.508" x="28.026" y="112.209" ry="0"/><rect style="display:inline;opacity:1;fill:#133f78;fill-opacity:1;stroke:none;stroke-width:.23210785;stroke-miterlimit:4;stroke-dasharray:none;stroke-opacity:1;enable-background:new" id="rect5332" width="16.78" height="3.508" x="39.201" y="112.209" ry="0"/><rect id="rect5334" width="16.833" height="3.508" x="83.937" y="112.209" ry="0" style="display:inline;opacity:1;fill:#1359ab;fill-opacity:1;stroke:none;stroke-width:.30747864;stroke-miterlimit:4;stroke-dasharray:none;stroke-opacity:1;enable-background:new"/><path id="path5336" d="m 104.43213,112.20869 v 3.50838 l 11.07266,-11.07266 v -3.75162 z" style="fill:#132c51;fill-opacity:1;stroke:none;stroke-width:1px;stroke-linecap:butt;stroke-linejoin:miter;stroke-opacity:1"/><path style="fill:#f6f5f4;fill-opacity:1;stroke:none;stroke-width:2.76339722;stroke-miterlimit:4;stroke-dasharray:none;stroke-opacity:1" id="rect1067" d="M 52.61017,7.864407 77.423729,8.9491527 80.40678,17.491526 H 45.830509 Z"/><path style="fill:#3d3846;fill-opacity:1;fill-rule:nonzero;stroke:none;stroke-width:2.0719533;stroke-miterlimit:4;stroke-dasharray:none;stroke-opacity:1" id="path1047" d="m 46.972429,53.269355 c 2.04664,8.087024 10.64305,16.347657 19.54297,16.347657 5.48463,0 11.8106,-4.950954 12.99414,-11.22461 0.33305,-1.762631 -1.0263,-2.612091 -2.85156,-2.828125 -2.30644,1.278202 -4.78697,2.213173 -7.36328,2.775391 -0.0168,0.114883 -0.0214,0.230929 -0.006,0.349609 0.49685,3.794354 -2.78537,5.668746 -5.99805,3.222656 -1.43775,-1.094636 -2.11548,-2.110067 -2.25976,-3.080078 -5.11876,-0.48395 -9.99447,-2.413099 -14.0586,-5.5625 z"/><g id="g941" transform="translate(0,0.57527331)"><path id="path4959" d="m 77.855467,12.439432 c -0.675319,8.061061 0.26906,11.448574 7.370188,11.448574 4.07277,0.0098 -6.428582,-10.705169 -7.370188,-11.448574 z" style="fill:#3d3846;fill-opacity:1;fill-rule:nonzero;stroke:none;stroke-width:3.8243134;stroke-miterlimit:4;stroke-dasharray:none;stroke-opacity:1"/><path id="path4961" d="m 63.896029,9.7947804 c -2.0612,-0.020084 -4.1166,0.2219606 -6.11675,0.7203116 0.0894,5.514669 2.73531,11.172592 5.96127,11.36951 2.98414,0.182231 6.09592,-5.381594 7.17163,-10.94244 -2.26989,-0.724071 -4.63386,-1.1106612 -7.01615,-1.1473816 z" style="fill:#3d3846;fill-opacity:1;fill-rule:nonzero;stroke:none;stroke-width:3.8243134;stroke-miterlimit:4;stroke-dasharray:none;stroke-opacity:1"/><path id="path4965" d="m 51.107539,13.244798 c -1.73328,1.021758 -3.33308,2.254659 -4.76271,3.670441 -1.65485,1.663799 -3.06018,3.558347 -4.1723,5.624729 1.64034,2.74729 3.91227,4.659318 5.8235,4.268732 3.03693,-0.619164 4.3841,-8.19262 3.11151,-13.563902 z" style="fill:#3d3846;fill-opacity:1;fill-rule:nonzero;stroke:none;stroke-width:3.8243134;stroke-miterlimit:4;stroke-dasharray:none;stroke-opacity:1"/><path id="path4967" d="m 73.671409,29.634842 c -11.22759,-0.189945 -24.99216,3.757282 -33.31343,11.759185 1.16857,3.739138 3.22312,7.14065 5.98882,9.915111 9.4974,9.496273 24.89453,9.496273 34.39193,0 4.78121,-4.796202 7.34606,-11.368792 7.07716,-18.135717 -3.34334,-2.2628 -8.40972,-3.441561 -14.14448,-3.538579 z" style="fill:#3d3846;fill-opacity:1;fill-rule:nonzero;stroke:none;stroke-width:3.8243134;stroke-miterlimit:4;stroke-dasharray:none;stroke-opacity:1"/><g style="fill:#c01c28;fill-opacity:1;stroke:#e01b24;stroke-width:3;stroke-miterlimit:4;stroke-dasharray:none" id="g1003" transform="translate(-94.372881)"><path style="fill:#c01c28;fill-opacity:1;stroke:#e01b24;stroke-width:8;stroke-linecap:round;stroke-linejoin:miter;stroke-miterlimit:4;stroke-dasharray:none;stroke-opacity:1" id="path4950" d="m 177.01798,53.439736 34.04216,33.228605"/><path style="fill:#c01c28;fill-opacity:1;stroke:#e01b24;stroke-width:3;stroke-miterlimit:4;stroke-dasharray:none;stroke-opacity:1" id="path4610" d="m 138.77878,14.929956 a 27.118645,27.118645 0 0 0 0,38.352256 27.118645,27.118645 0 0 0 38.35088,-0.0014 27.118645,27.118645 0 0 0 0.001,-38.350875 27.118645,27.118645 0 0 0 -38.35226,0 z m 2.10889,2.108891 a 24.135593,24.135593 0 0 1 34.13448,0 24.135593,24.135593 0 0 1 -0.001,34.133094 24.135593,24.135593 0 0 1 -34.13171,0 24.135593,24.135593 0 0 1 -0.001,-34.133094 z"/></g></g></svg>